<svg width="15" height="28" viewBox="0 0 15 28" fill="none" xmlns="http://www.w3.org/2000/svg">
<path d="M14.1253 13.3847C14.4422 13.7245 14.4422 14.2753 14.1253 14.6151C13.8084 14.9549 13.2946 14.9549 12.9777 14.6151L1.21425 2.0031C0.897334 1.66332 0.897334 1.11243 1.21425 0.772655C1.53116 0.432878 2.04499 0.432878 2.3619 0.772655L14.1253 13.3847Z" fill="white"/>
<path d="M2.3619 27.2271C2.04499 27.5669 1.53116 27.5669 1.21425 27.2271C0.897334 26.8874 0.897334 26.3365 1.21425 25.9967L12.9777 13.3847C13.2946 13.0449 13.8084 13.0449 14.1253 13.3847C14.4422 13.7245 14.4422 14.2753 14.1253 14.6151L2.3619 27.2271Z" fill="white"/>
</svg>
