<svg width="14" height="28" viewBox="0 0 14 28" fill="none" xmlns="http://www.w3.org/2000/svg">
<path d="M0.822426 13.3848C0.50551 13.7246 0.50551 14.2755 0.822426 14.6152C1.13934 14.955 1.65316 14.955 1.97008 14.6152L13.7335 2.00322C14.0504 1.66344 14.0504 1.11255 13.7335 0.772777C13.4166 0.433 12.9028 0.433 12.5859 0.772777L0.822426 13.3848Z" fill="white"/>
<path d="M12.5859 27.2273C12.9028 27.567 13.4166 27.567 13.7335 27.2273C14.0504 26.8875 14.0504 26.3366 13.7335 25.9968L1.97008 13.3848C1.65316 13.045 1.13934 13.045 0.822426 13.3848C0.50551 13.7246 0.50551 14.2755 0.822426 14.6152L12.5859 27.2273Z" fill="white"/>
</svg>
